<?xml version="1.0" encoding="UTF-8" standalone="no"?><svg width="36" height="36" viewBox="0 0 36 36" fill="none" xmlns="http://www.w3.org/2000/svg">
<mask id="mask0_4371_22011" style="mask-type:alpha" maskUnits="userSpaceOnUse" x="0" y="0" width="36" height="36">
<rect width="36" height="36" fill="#D9D9D9"/>
</mask>
<g mask="url(#mask0_4371_22011)">
<path d="M18 33C15.925 33 13.975 32.6062 12.15 31.8187C10.325 31.0312 8.7375 29.9625 7.3875 28.6125C6.0375 27.2625 4.96875 25.675 4.18125 23.85C3.39375 22.025 3 20.075 3 18C3 15.925 3.39375 13.975 4.18125 12.15C4.96875 10.325 6.0375 8.7375 7.3875 7.3875C8.7375 6.0375 10.325 4.96875 12.15 4.18125C13.975 3.39375 15.925 3 18 3C20.075 3 22.025 3.39375 23.85 4.18125C25.675 4.96875 27.2625 6.0375 28.6125 7.3875C29.9625 8.7375 31.0312 10.325 31.8187 12.15C32.6062 13.975 33 15.925 33 18C33 20.075 32.6062 22.025 31.8187 23.85C31.0312 25.675 29.9625 27.2625 28.6125 28.6125C27.2625 29.9625 25.675 31.0312 23.85 31.8187C22.025 32.6062 20.075 33 18 33ZM18 30C21.35 30 24.1875 28.8375 26.5125 26.5125C28.8375 24.1875 30 21.35 30 18C30 14.65 28.8375 11.8125 26.5125 9.4875C24.1875 7.1625 21.35 6 18 6C14.65 6 11.8125 7.1625 9.4875 9.4875C7.1625 11.8125 6 14.65 6 18C6 21.35 7.1625 24.1875 9.4875 26.5125C11.8125 28.8375 14.65 30 18 30ZM13.05 24.9375L17.6625 22.9125C17.7875 22.8625 17.9062 22.8375 18.0187 22.8375C18.1312 22.8375 18.25 22.8625 18.375 22.9125L22.95 24.9375C23.3 25.0875 23.6125 25.0312 23.8875 24.7687C24.1625 24.5063 24.225 24.2 24.075 23.85L18.7875 10.95C18.6375 10.6 18.375 10.425 18 10.425C17.625 10.425 17.3625 10.6 17.2125 10.95L11.925 23.85C11.775 24.2 11.8375 24.5063 12.1125 24.7687C12.3875 25.0312 12.7 25.0875 13.05 24.9375Z" fill="#414141"/>
</g>
</svg>
